<?xml version="1.0" encoding="UTF-8" standalone="no"?>
<!DOCTYPE svg PUBLIC "-//W3C//DTD SVG 1.1//EN"
 "http://www.w3.org/Graphics/SVG/1.1/DTD/svg11.dtd">
<!-- Generated by graphviz version 2.38.0 (20140413.2041)
 -->
<!-- Title: f Pages: 1 -->
<svg width="323pt" height="332pt"
 viewBox="0.00 0.00 323.00 331.90" xmlns="http://www.w3.org/2000/svg" xmlns:xlink="http://www.w3.org/1999/xlink">
<g id="graph0" class="graph" transform="scale(0.446703 0.446703) rotate(0) translate(4 739)">
<title>f</title>
<!-- ecd.st -->
<g id="node1" class="node"><title>ecd.st</title>
<ellipse fill="white" stroke="black" cx="224.972" cy="-423" rx="157.5" ry="29.5"/>
<text text-anchor="middle" x="224.972" y="-426.8" font-family="Times,serif" font-size="14.00">ecd.st </text>
<text text-anchor="middle" x="224.972" y="-411.8" font-family="Times,serif" font-size="14.00">[MarkedEventData: S ⨉ T ⨉ Q set]</text>
</g>
<!-- fcall_Xdob1p -->
<g id="node13" class="node"><title>fcall_Xdob1p</title>
<ellipse fill="orange" stroke="black" cx="467.972" cy="-126" rx="240.5" ry="29.5"/>
<text text-anchor="middle" x="467.972" y="-129.8" font-family="Times,serif" font-size="14.00">aggregate.st</text>
<text text-anchor="middle" x="467.972" y="-114.8" font-family="Times,serif" font-size="14.00">[S ⨉ T ⨉ Q set ⇒ R ⨉ (I set) ⇒ Qstat ⇒ Q ⇒ I ⨉ Q set]</text>
</g>
<!-- ecd.st&#45;&gt;fcall_Xdob1p -->
<g id="edge1" class="edge"><title>ecd.st&#45;&gt;fcall_Xdob1p:center</title>
<path fill="none" stroke="black" d="M228.531,-393.352C235.492,-348.412 254.783,-260.872 303.972,-206.5 322.783,-185.707 348.223,-169.783 373.448,-157.849"/>
<polygon fill="none" stroke="black" points="375.066,-160.958 382.719,-153.631 372.167,-154.586 375.066,-160.958"/>
<text text-anchor="middle" x="261.472" y="-287.3" font-family="Times,serif" font-size="14.00">x</text>
</g>
<!-- fcall_CXpVHp -->
<g id="node2" class="node"><title>fcall_CXpVHp</title>
<ellipse fill="orange" stroke="black" cx="213.972" cy="-596" rx="207.5" ry="29.5"/>
<text text-anchor="middle" x="213.972" y="-599.8" font-family="Times,serif" font-size="14.00">STFDF.MarkedEvent</text>
<text text-anchor="middle" x="213.972" y="-584.8" font-family="Times,serif" font-size="14.00">[Q set ⇒ T set ⇒ S set ⇒ T set ⇒ S ⨉ T ⨉ Q set]</text>
</g>
<!-- fcall_CXpVHp&#45;&gt;ecd.st -->
<g id="edge2" class="edge"><title>fcall_CXpVHp&#45;&gt;ecd.st:center</title>
<path fill="none" stroke="red" d="M215.813,-566.378C217.638,-538.019 220.445,-494.379 222.471,-462.889"/>
<polygon fill="red" stroke="red" points="225.976,-462.919 223.125,-452.715 218.99,-462.47 225.976,-462.919"/>
</g>
<!-- ecd.locations -->
<g id="node3" class="node"><title>ecd.locations</title>
<ellipse fill="white" stroke="black" cx="96.9722" cy="-706" rx="65.5" ry="29.5"/>
<text text-anchor="middle" x="96.9722" y="-709.8" font-family="Times,serif" font-size="14.00">ecd.locations </text>
<text text-anchor="middle" x="96.9722" y="-694.8" font-family="Times,serif" font-size="14.00">[S set]</text>
</g>
<!-- ecd.locations&#45;&gt;fcall_CXpVHp -->
<g id="edge3" class="edge"><title>ecd.locations&#45;&gt;fcall_CXpVHp:center</title>
<path fill="none" stroke="black" d="M124.997,-679.131C140.239,-665.061 159.312,-647.456 175.885,-632.157"/>
<polygon fill="none" stroke="black" points="178.327,-634.666 183.301,-625.312 173.579,-629.523 178.327,-634.666"/>
<text text-anchor="middle" x="169.472" y="-647.3" font-family="Times,serif" font-size="14.00">sp</text>
</g>
<!-- ecd.years -->
<g id="node4" class="node"><title>ecd.years</title>
<ellipse fill="white" stroke="black" cx="381.972" cy="-706" rx="50.5" ry="29.5"/>
<text text-anchor="middle" x="381.972" y="-709.8" font-family="Times,serif" font-size="14.00">ecd.years </text>
<text text-anchor="middle" x="381.972" y="-694.8" font-family="Times,serif" font-size="14.00">[T set]</text>
</g>
<!-- ecd.years&#45;&gt;fcall_CXpVHp -->
<g id="edge4" class="edge"><title>ecd.years&#45;&gt;fcall_CXpVHp:center</title>
<path fill="none" stroke="black" d="M348.781,-683.663C325.138,-668.464 292.894,-647.735 265.868,-630.362"/>
<polygon fill="none" stroke="black" points="267.599,-627.313 257.294,-624.85 263.813,-633.202 267.599,-627.313"/>
<text text-anchor="middle" x="321.472" y="-647.3" font-family="Times,serif" font-size="14.00">time</text>
</g>
<!-- fcall_spJSho -->
<g id="node7" class="node"><title>fcall_spJSho</title>
<ellipse fill="orange" stroke="black" cx="547.972" cy="-596" rx="99.5" ry="29.5"/>
<text text-anchor="middle" x="547.972" y="-599.8" font-family="Times,serif" font-size="14.00">getTimeIntervals</text>
<text text-anchor="middle" x="547.972" y="-584.8" font-family="Times,serif" font-size="14.00">[T set ⇒ Q set ⇒ I set]</text>
</g>
<!-- ecd.years&#45;&gt;fcall_spJSho -->
<g id="edge5" class="edge"><title>ecd.years&#45;&gt;fcall_spJSho:center</title>
<path fill="none" stroke="black" d="M415.166,-683.404C439.242,-667.74 472.19,-646.304 499.245,-628.702"/>
<polygon fill="none" stroke="black" points="501.33,-631.521 507.803,-623.134 497.512,-625.654 501.33,-631.521"/>
<text text-anchor="middle" x="490.472" y="-647.3" font-family="Times,serif" font-size="14.00">T_set</text>
</g>
<!-- ecd.data -->
<g id="node5" class="node"><title>ecd.data</title>
<ellipse fill="white" stroke="black" cx="230.972" cy="-706" rx="46" ry="29.5"/>
<text text-anchor="middle" x="230.972" y="-709.8" font-family="Times,serif" font-size="14.00">ecd.data </text>
<text text-anchor="middle" x="230.972" y="-694.8" font-family="Times,serif" font-size="14.00">[Q set]</text>
</g>
<!-- ecd.data&#45;&gt;fcall_CXpVHp -->
<g id="edge6" class="edge"><title>ecd.data&#45;&gt;fcall_CXpVHp:center</title>
<path fill="none" stroke="black" d="M226.506,-676.624C224.53,-664.074 222.176,-649.12 220.045,-635.578"/>
<polygon fill="none" stroke="black" points="223.48,-634.895 218.468,-625.561 216.565,-635.984 223.48,-634.895"/>
<text text-anchor="middle" x="235.472" y="-647.3" font-family="Times,serif" font-size="14.00">data</text>
</g>
<!-- target.years -->
<g id="node6" class="node"><title>target.years</title>
<ellipse fill="white" stroke="black" cx="543.972" cy="-500" rx="59.5" ry="29.5"/>
<text text-anchor="middle" x="543.972" y="-503.8" font-family="Times,serif" font-size="14.00">target.years </text>
<text text-anchor="middle" x="543.972" y="-488.8" font-family="Times,serif" font-size="14.00">[I set]</text>
</g>
<!-- fcall_d9snht -->
<g id="node10" class="node"><title>fcall_d9snht</title>
<ellipse fill="orange" stroke="black" cx="430.972" cy="-346" rx="110.5" ry="29.5"/>
<text text-anchor="middle" x="430.972" y="-349.8" font-family="Times,serif" font-size="14.00">STF.sem</text>
<text text-anchor="middle" x="430.972" y="-334.8" font-family="Times,serif" font-size="14.00">[R ⇒ I set ⇒ R ⨉ (I set)]</text>
</g>
<!-- target.years&#45;&gt;fcall_d9snht -->
<g id="edge7" class="edge"><title>target.years&#45;&gt;fcall_d9snht:center</title>
<path fill="none" stroke="black" d="M524.03,-472.175C505.656,-447.46 478.242,-410.584 457.923,-383.252"/>
<polygon fill="none" stroke="black" points="460.638,-381.038 451.863,-375.101 455.02,-385.214 460.638,-381.038"/>
<text text-anchor="middle" x="520.472" y="-419.3" font-family="Times,serif" font-size="14.00">time</text>
</g>
<!-- fcall_spJSho&#45;&gt;target.years -->
<g id="edge8" class="edge"><title>fcall_spJSho&#45;&gt;target.years:center</title>
<path fill="none" stroke="red" d="M546.75,-566.286C546.394,-557.904 545.998,-548.602 545.619,-539.71"/>
<polygon fill="red" stroke="red" points="549.109,-539.38 545.187,-529.538 542.115,-539.678 549.109,-539.38"/>
</g>
<!-- expr_87bDVS -->
<g id="node8" class="node"><title>expr_87bDVS</title>
<ellipse fill="orange" stroke="black" cx="547.972" cy="-706" rx="76.5" ry="29.5"/>
<text text-anchor="middle" x="547.972" y="-709.8" font-family="Times,serif" font-size="14.00">c(4, 6, 8, 10, 12)</text>
<text text-anchor="middle" x="547.972" y="-694.8" font-family="Times,serif" font-size="14.00">[Q set ⇒ Q set]</text>
</g>
<!-- expr_87bDVS&#45;&gt;fcall_spJSho -->
<g id="edge9" class="edge"><title>expr_87bDVS&#45;&gt;fcall_spJSho:center</title>
<path fill="none" stroke="black" d="M547.972,-676.342C547.972,-664.014 547.972,-649.408 547.972,-636.109"/>
<polygon fill="none" stroke="black" points="551.472,-635.792 547.972,-625.792 544.472,-635.792 551.472,-635.792"/>
<text text-anchor="middle" x="565.972" y="-647.3" font-family="Times,serif" font-size="14.00">breaks</text>
</g>
<!-- target.st -->
<g id="node9" class="node"><title>target.st</title>
<ellipse fill="white" stroke="black" cx="375.972" cy="-236" rx="62.5" ry="29.5"/>
<text text-anchor="middle" x="375.972" y="-239.8" font-family="Times,serif" font-size="14.00">target.st </text>
<text text-anchor="middle" x="375.972" y="-224.8" font-family="Times,serif" font-size="14.00">[R ⨉ (I set)]</text>
</g>
<!-- target.st&#45;&gt;fcall_Xdob1p -->
<g id="edge10" class="edge"><title>target.st&#45;&gt;fcall_Xdob1p:center</title>
<path fill="none" stroke="black" d="M398.714,-208.303C410.207,-194.811 424.33,-178.233 436.817,-163.573"/>
<polygon fill="none" stroke="black" points="439.739,-165.541 443.559,-155.658 434.41,-161.001 439.739,-165.541"/>
<text text-anchor="middle" x="434.972" y="-177.3" font-family="Times,serif" font-size="14.00">by</text>
</g>
<!-- fcall_d9snht&#45;&gt;target.st -->
<g id="edge11" class="edge"><title>fcall_d9snht&#45;&gt;target.st:center</title>
<path fill="none" stroke="red" d="M416.522,-316.624C409.838,-303.5 401.815,-287.747 394.677,-273.729"/>
<polygon fill="red" stroke="red" points="397.793,-272.135 390.136,-264.813 391.555,-275.312 397.793,-272.135"/>
</g>
<!-- FL -->
<g id="node11" class="node"><title>FL</title>
<ellipse fill="white" stroke="black" cx="430.972" cy="-500" rx="27" ry="29.5"/>
<text text-anchor="middle" x="430.972" y="-503.8" font-family="Times,serif" font-size="14.00">FL </text>
<text text-anchor="middle" x="430.972" y="-488.8" font-family="Times,serif" font-size="14.00">[R]</text>
</g>
<!-- FL&#45;&gt;fcall_d9snht -->
<g id="edge12" class="edge"><title>FL&#45;&gt;fcall_d9snht:center</title>
<path fill="none" stroke="black" d="M430.972,-470.41C430.972,-446.495 430.972,-412.153 430.972,-385.765"/>
<polygon fill="none" stroke="black" points="434.472,-385.72 430.972,-375.72 427.472,-385.72 434.472,-385.72"/>
<text text-anchor="middle" x="437.472" y="-419.3" font-family="Times,serif" font-size="14.00">sp</text>
</g>
<!-- ts -->
<g id="node12" class="node"><title>ts</title>
<ellipse fill="white" stroke="black" cx="467.972" cy="-30" rx="114" ry="29.5"/>
<text text-anchor="middle" x="467.972" y="-33.8" font-family="Times,serif" font-size="14.00">ts </text>
<text text-anchor="middle" x="467.972" y="-18.8" font-family="Times,serif" font-size="14.00">[TLatticeData: I ⨉ Q set]</text>
</g>
<!-- fcall_Xdob1p&#45;&gt;ts -->
<g id="edge13" class="edge"><title>fcall_Xdob1p&#45;&gt;ts:center</title>
<path fill="none" stroke="red" d="M467.972,-96.2861C467.972,-87.9039 467.972,-78.6024 467.972,-69.7098"/>
<polygon fill="red" stroke="red" points="471.472,-69.538 467.972,-59.538 464.472,-69.5381 471.472,-69.538"/>
</g>
<!-- sum -->
<g id="node14" class="node"><title>sum</title>
<ellipse fill="white" stroke="black" cx="498.972" cy="-236" rx="38.5" ry="29.5"/>
<text text-anchor="middle" x="498.972" y="-239.8" font-family="Times,serif" font-size="14.00">sum </text>
<text text-anchor="middle" x="498.972" y="-224.8" font-family="Times,serif" font-size="14.00">[Qstat]</text>
</g>
<!-- sum&#45;&gt;fcall_Xdob1p -->
<g id="edge14" class="edge"><title>sum&#45;&gt;fcall_Xdob1p:center</title>
<path fill="none" stroke="black" d="M490.908,-206.906C487.27,-194.232 482.916,-179.064 478.984,-165.364"/>
<polygon fill="none" stroke="black" points="482.335,-164.351 476.212,-155.705 475.606,-166.282 482.335,-164.351"/>
<text text-anchor="middle" x="499.972" y="-177.3" font-family="Times,serif" font-size="14.00">FUN</text>
</g>
<!-- lt_OeXBmh -->
<g id="node15" class="node"><title>lt_OeXBmh</title>
<ellipse fill="white" stroke="black" cx="593.972" cy="-236" rx="36" ry="18"/>
<text text-anchor="middle" x="593.972" y="-232.3" font-family="Times,serif" font-size="14.00">TRUE</text>
</g>
<!-- lt_OeXBmh&#45;&gt;fcall_Xdob1p -->
<g id="edge15" class="edge"><title>lt_OeXBmh&#45;&gt;fcall_Xdob1p:center</title>
<path fill="none" stroke="black" d="M576.452,-219.983C559.032,-205.051 531.677,-181.604 508.796,-161.992"/>
<polygon fill="none" stroke="black" points="510.783,-159.085 500.913,-155.235 506.227,-164.4 510.783,-159.085"/>
<text text-anchor="middle" x="555.472" y="-177.3" font-family="Times,serif" font-size="14.00">na.rm</text>
</g>
</g>
</svg>
